<svg width="33" height="41" viewBox="0 0 33 41" fill="none" xmlns="http://www.w3.org/2000/svg">
<path d="M25.9318 27.996C25.6313 28.0819 24.8161 28.2965 23.872 28.554C23.5287 27.3952 22.9707 26.2795 21.9837 25.8075C20.6962 25.2067 18.8939 25.2926 17.3062 25.3354C18.1644 21.6876 19.5378 18.8555 20.9968 16.6669C22.4558 17.4823 24.0007 17.9112 25.4597 17.9112C26.7899 17.9112 27.9915 17.5679 29.0215 16.8812C33.4416 13.8345 33.0126 3.1488 32.9696 1.94722C32.9268 1.13178 32.4116 0.445086 31.6393 0.144843C30.867 -0.155698 30.0516 0.0161252 29.4508 0.61691C27.6913 2.41929 25.5027 3.40615 23.3999 4.39339C20.3529 5.80955 17.4777 7.18263 17.1775 10.6586C17.0059 12.2894 17.7354 13.92 19.1085 15.2933C18.379 16.3662 17.6924 17.5678 17.0916 18.9411C16.3193 17.3534 15.332 16.0232 14.3451 14.9931C15.0318 14.0061 15.332 12.8474 15.1174 11.7746C14.6453 9.11398 12.285 8.25548 10.0106 7.44035C8.46567 6.88238 6.87794 6.32467 5.54769 5.16592C4.98972 4.69385 4.2602 4.60795 3.61665 4.90848C2.9731 5.20902 2.58665 5.89542 2.58665 6.58212C2.62945 7.48346 3.01591 15.3365 6.57747 17.3105C7.26416 17.6967 8.03646 17.8685 8.8519 17.8685C10.0962 17.8685 11.4696 17.4393 12.6712 16.581C14.0015 17.9544 15.2462 19.7996 15.8038 22.2027C15.5033 23.1896 15.2031 24.2196 14.9456 25.3353C13.9587 25.3353 13.0574 25.3781 12.2851 25.464C10.5687 25.7214 7.09236 27.6525 4.90391 29.2833C4.17442 29.8413 2.88697 30.957 1.72822 31.9439C1.29896 32.33 0.912781 32.6734 0.612538 32.9308C-0.116957 33.5316 -0.2029 34.6045 0.397907 35.3339L4.43187 40.1402C4.73242 40.4835 5.16137 40.741 5.63346 40.741H5.76218C6.19144 40.741 6.62038 40.5694 6.92092 40.2689L9.19535 38.166C11.5984 38.8096 14.1734 39.2389 15.9757 39.2389H16.0185C18.6363 39.2389 22.8849 37.5653 28.721 34.2608C30.2231 33.4026 30.8238 31.5572 30.1371 29.8835C29.5364 28.5108 27.9915 27.3951 25.9317 27.9959L25.9318 27.996ZM7.65054 15.2935C6.19155 14.4781 5.20431 10.9163 4.90406 7.61199C6.32022 8.55609 7.82204 9.11412 9.19544 9.58617C11.427 10.4016 12.5855 10.8737 12.8001 12.1611C12.886 12.5904 12.7573 13.0193 12.5427 13.4055C10.7403 11.9893 9.19541 11.3457 9.06674 11.3026C8.46597 11.0452 7.8224 11.3454 7.56461 11.9462C7.30717 12.547 7.60741 13.1906 8.20819 13.4484C8.251 13.4484 9.40977 13.9632 10.8259 14.9933C9.71025 15.594 8.4659 15.7227 7.65047 15.2935L7.65054 15.2935ZM19.4518 10.8734C19.6233 8.81365 21.3829 7.91231 24.3867 6.53922C26.4037 5.59512 28.6781 4.52227 30.6523 2.7199C30.8238 7.69797 29.8369 13.4912 27.6484 14.9932C26.1463 16.0232 24.0006 15.6368 22.327 14.8217C24.7733 11.7747 27.0477 10.5303 27.0905 10.5303C27.6484 10.2298 27.8628 9.54339 27.5625 8.98543C27.262 8.42746 26.5756 8.21314 26.0176 8.51337C25.803 8.59928 23.1853 10.0155 20.4388 13.4483C19.838 12.6329 19.3659 11.7747 19.4518 10.8733L19.4518 10.8734ZM5.76234 38.2095L2.54381 34.3474C2.75844 34.1759 2.97307 33.9612 3.2305 33.7466C3.48793 33.532 3.74537 33.3174 4.00279 33.0599L7.17848 36.8792L5.76234 38.2095ZM27.5625 32.2876C20.7393 36.1497 17.5207 36.9651 15.9758 36.9651H15.933C14.3453 36.9651 11.9422 36.5359 9.75335 35.9782C9.62463 35.9354 9.53872 35.9354 9.41 35.9354L5.76218 31.5581C5.9337 31.4294 6.10553 31.3007 6.23424 31.172C8.46584 29.4983 11.5556 27.9534 12.5854 27.7819C13.2721 27.6532 14.2162 27.6532 15.246 27.6532C15.8039 27.6532 17.3488 27.6104 17.3488 27.6104C18.5932 27.5676 20.1812 27.4817 20.9966 27.8678C21.1682 27.9537 21.4259 28.3827 21.6402 29.1122C20.8679 29.3268 20.1812 29.4983 19.7519 29.6271C18.9365 29.7986 17.0055 29.8845 15.4606 29.8417H15.16C14.4736 29.7986 13.9157 30.2706 13.9157 30.9142C13.8729 31.5578 14.3878 32.073 15.0314 32.1158H15.3319C16.8768 32.2017 19.1512 32.1158 20.2668 31.8584C22.0264 31.4722 23.2707 31.0861 23.3566 31.0861C23.3566 31.0861 26.2318 30.2706 26.5752 30.1847C27.4765 29.9273 27.8626 30.4422 27.9913 30.7855C28.1631 31.3004 28.1203 31.9443 27.5623 32.2876L27.5625 32.2876Z" fill="white"/>
</svg>
