<svg width="34" height="41" viewBox="0 0 34 41" fill="none" xmlns="http://www.w3.org/2000/svg">
<path d="M23.9452 36.8239L23.3028 36.7321L22.796 37.1375C21.9251 37.8342 19.4923 39.2411 17.0442 39.2411C14.4595 39.2411 12.6732 38.2277 11.3091 37.4539C10.9907 37.2733 10.6953 37.1057 10.4182 36.9672C10.2886 36.9024 10.1826 36.8454 10.0781 36.789L10.0596 36.779C9.96793 36.7296 9.84828 36.665 9.73044 36.6095C9.41077 36.4591 9.05984 36.3527 8.60719 36.3527C8.25214 36.3527 7.87013 36.421 7.49332 36.4945C7.30451 36.5314 7.06412 36.5808 6.7819 36.6389C6.49577 36.6978 6.16665 36.7655 5.8047 36.8379C4.86853 37.0252 4.20531 36.8966 3.77614 36.7219C3.55534 36.632 3.38662 36.5259 3.26746 36.4315C3.24597 36.4145 3.22641 36.3981 3.20874 36.3826C-0.00731297 23.7173 1.73328 15.3399 4.97836 10.0073C8.19297 4.72488 12.9989 2.23446 16.4586 1.52376C20.6144 2.23294 23.6468 4.05554 25.864 6.52746C28.1471 9.07286 29.6273 12.378 30.4981 16.0357C32.2266 23.2964 31.4793 31.6363 30.2199 37.1744C30.0601 37.4611 29.8288 37.7951 29.5996 38.0137C29.5878 38.025 29.5765 38.0354 29.5659 38.045C28.8537 37.7594 27.8242 37.5216 26.9362 37.3407C25.832 37.1156 24.6771 36.9284 23.9452 36.8239Z" stroke="white" stroke-width="3"/>
<path d="M22.9181 31.5712C22.1976 31.5712 21.5832 31.4461 21.075 31.1958C20.5744 30.9379 20.1535 30.6042 19.8122 30.1946L21.0181 29.0455C21.2912 29.3565 21.5756 29.5954 21.8714 29.7623C22.1748 29.9216 22.5313 30.0012 22.9409 30.0012C23.2746 30.0012 23.5439 29.914 23.7486 29.7395C23.961 29.5651 24.0672 29.33 24.0672 29.0341V29.0114C24.0672 28.6853 23.9307 28.435 23.6576 28.2605C23.3846 28.0861 23.0015 27.9988 22.5085 27.9988H21.7804L21.5074 26.8839L23.4073 24.9725H20.2786V23.4708H25.66V24.7905L23.6462 26.7132C23.9193 26.7587 24.181 26.8308 24.4313 26.9294C24.6891 27.028 24.9167 27.1645 25.1139 27.339C25.3187 27.5134 25.4817 27.7334 25.6031 27.9988C25.7245 28.2567 25.7851 28.5715 25.7851 28.9431V28.9659C25.7851 29.3451 25.7169 29.694 25.5803 30.0126C25.4514 30.3235 25.2618 30.5966 25.0115 30.8317C24.7688 31.0668 24.4692 31.2489 24.1127 31.3778C23.7562 31.5068 23.358 31.5712 22.9181 31.5712Z" fill="white"/>
<path d="M7.22641 19.3331C7.22641 17.9673 7.49336 16.7816 8.02727 15.7758C8.56118 14.7577 9.32479 13.9692 10.3181 13.4105C11.3114 12.8518 12.4848 12.5724 13.8382 12.5724C15.204 12.5724 16.3835 12.8518 17.3768 13.4105C18.3702 13.9692 19.1338 14.7577 19.6677 15.7758C20.214 16.7816 20.4872 17.9673 20.4872 19.3331C20.4872 20.6865 20.214 21.8723 19.6677 22.8904C19.1338 23.9086 18.3702 24.7032 17.3768 25.2744C16.3835 25.8331 15.204 26.1125 13.8382 26.1125C12.4848 26.1125 11.3114 25.8331 10.3181 25.2744C9.3372 24.7032 8.57359 23.9086 8.02727 22.8904C7.49336 21.8723 7.22641 20.6865 7.22641 19.3331ZM10.821 19.3331C10.821 20.5624 11.0693 21.5246 11.566 22.22C12.0626 22.9029 12.82 23.2443 13.8382 23.2443C14.8563 23.2443 15.6199 22.9029 16.129 22.22C16.6381 21.5246 16.8926 20.5624 16.8926 19.3331C16.8926 18.1039 16.6381 17.1478 16.129 16.4649C15.6199 15.782 14.8563 15.4406 13.8382 15.4406C12.82 15.4406 12.0626 15.782 11.566 16.4649C11.0693 17.1354 10.821 18.0915 10.821 19.3331Z" fill="white"/>
</svg>
