<svg width="44" height="48" viewBox="0 0 44 48" fill="none" xmlns="http://www.w3.org/2000/svg">
<path d="M43.3926 15.061C43.3926 10.1933 39.4328 6.23346 34.5652 6.23346C34.2851 6.23346 34.0072 6.24672 33.7312 6.27243C31.6607 2.98757 28.0211 0.912231 24.0194 0.912231C19.9749 0.912231 16.332 2.99919 14.2728 6.31264C13.8836 6.25961 13.4915 6.2331 13.0986 6.2331C9.45894 6.2331 6.27857 8.4844 4.94482 11.6978C2.12871 12.2614 0 14.7537 0 17.7333C0 20.6302 2.01384 23.0594 4.71343 23.7106L4.94322 20.7748C3.73442 20.2927 2.8796 19.1144 2.8796 17.7333C2.8796 15.9244 4.34591 14.458 6.1549 14.458C6.51042 14.458 6.85228 14.5167 7.17326 14.6215C7.39903 11.5427 9.96242 9.11315 13.0995 9.11315C14.0821 9.11315 15.0065 9.3558 15.8227 9.7772C16.9327 6.30671 20.1819 3.79234 24.0207 3.79234C27.8018 3.79234 31.0059 6.23359 32.1625 9.62294C32.898 9.29754 33.7099 9.11315 34.5664 9.11315C37.8513 9.11315 40.5144 11.7762 40.5144 15.0611C40.5144 18.3459 37.8513 21.009 34.5664 21.009L17.3436 21.0098L17.2837 19.9565C17.1973 18.4316 15.936 17.2393 14.4086 17.2393H8.99612C7.46872 17.2393 6.20778 18.4316 6.12099 19.9565L4.75998 44.0502C4.71579 44.8408 4.99861 45.6149 5.54214 46.1902C6.08568 46.7655 6.84329 47.0921 7.63517 47.0921H37.307C38.897 47.0921 40.1865 45.8026 40.1865 44.2126L40.1861 31.8376C40.1861 30.8333 39.6631 29.9022 38.8058 29.3791C38.3466 29.0991 37.8272 28.9581 37.3066 28.9581C36.855 28.9581 36.4031 29.0642 35.9877 29.2779L32.6787 30.982C32.4738 30.3227 32.0344 29.7483 31.4286 29.3791C30.9694 29.0991 30.45 28.9581 29.9294 28.9581C29.4778 28.9581 29.0259 29.0641 28.6105 29.2778L25.3007 30.9823C25.0958 30.3231 24.6563 29.7486 24.0505 29.379C23.5914 29.099 23.0719 28.958 22.5513 28.958C22.0998 28.958 21.6478 29.0641 21.2325 29.2778L13.7969 33.1074C12.838 33.6011 12.2362 34.5894 12.2362 35.6672V44.2131H7.63528L8.99629 20.1184H14.4087L15.0479 31.4361L17.8491 29.963L17.506 23.8893H34.5653C39.4326 23.8897 43.3924 19.9291 43.3924 15.0618L43.3926 15.061ZM15.1164 35.6663L22.5519 31.8367V35.6365L29.93 31.8367V35.6365L37.3072 31.8367V44.2116H15.1161L15.1164 35.6663Z" fill="white"/>
</svg>
