<svg width="39" height="40" viewBox="0 0 39 40" fill="none" xmlns="http://www.w3.org/2000/svg">
<path d="M1.58033 29.2883C0.561222 28.0659 0 26.5161 0 24.9237V13.9436C0 12.064 1.5296 10.5344 3.40922 10.5344C5.28883 10.5344 6.81843 12.064 6.81843 13.9436V18.8142C7.90573 18.6059 9.0871 18.9055 9.89249 19.7109L15.389 25.3188C16.8974 26.8582 17.7278 28.8925 17.7278 31.0462V37.8082C17.7278 38.5612 17.1174 39.1719 16.364 39.1719C15.6109 39.1719 15.0002 38.5616 15.0002 37.8082L15.0005 31.0462C15.0005 29.6098 14.4463 28.2543 13.4408 27.2289L7.95378 21.6306C7.71089 21.387 7.28506 21.3734 7.01965 21.6401C6.77328 21.8861 6.75204 22.2688 6.96511 22.5343L10.6378 27.4461C11.0893 28.0492 10.9657 28.9034 10.3623 29.3543C9.75761 29.8058 8.905 29.6812 8.45409 29.0788L4.80866 24.2028C4.33241 23.6083 4.10538 22.885 4.09904 22.1582C4.09809 22.1449 4.0908 22.1344 4.0908 22.1214V13.9434C4.0908 13.567 3.78545 13.2617 3.40908 13.2617C3.03271 13.2617 2.72737 13.567 2.72737 13.9434V24.9235C2.72737 25.8786 3.0641 26.8085 3.67546 27.5423L9.2294 34.2078C9.43391 34.4529 9.54552 34.7615 9.54552 35.0808V37.8083C9.54552 38.5614 8.93515 39.1721 8.18175 39.1721C7.4287 39.1721 6.81799 38.5617 6.81799 37.8083V35.5742L1.58033 29.2883Z" fill="white"/>
<path d="M38.1832 13.9436V24.9237C38.1832 26.5154 37.6219 28.0659 36.6022 29.2883L31.3647 35.5741V37.8082C31.3647 38.5612 30.7544 39.1719 30.001 39.1719C29.2479 39.1719 28.6372 38.5616 28.6372 37.8082V35.0806C28.6372 34.7617 28.7491 34.4528 28.9536 34.2077L34.5076 27.5425C35.1189 26.8087 35.456 25.8788 35.456 24.9237V13.9436C35.456 13.5672 35.1506 13.2619 34.7743 13.2619C34.3979 13.2619 34.0926 13.5672 34.0926 13.9436V22.1208C34.0926 22.1446 34.0802 22.1639 34.0792 22.1868C34.0647 22.911 33.8319 23.6336 33.3484 24.2382L29.7302 29.0784C29.2803 29.6812 28.4258 29.8058 27.822 29.354C27.219 28.9031 27.0947 28.0489 27.5465 27.4458L31.1919 22.5698C31.4323 22.2679 31.411 21.8852 31.17 21.6443C30.8993 21.3735 30.4782 21.3814 30.2213 21.6398L24.7422 27.2289C23.7367 28.254 23.1825 29.6098 23.1825 31.0459V37.8079C23.1825 38.5609 22.5721 39.1716 21.8187 39.1716C21.0657 39.1716 20.455 38.5613 20.455 37.8079L20.4553 31.0459C20.4553 28.8916 21.2857 26.8575 22.7934 25.3188L28.2808 19.7204C29.0976 18.9039 30.28 18.605 31.3647 18.8123V13.9433C31.3647 12.0637 32.8943 10.5341 34.7739 10.5341C36.6535 10.5341 38.1831 12.0637 38.1831 13.9433L38.1832 13.9436Z" fill="white"/>
<path d="M19.0915 3.1812C17.9171 1.85266 16.157 0.988586 14.3186 0.988586C10.9347 0.988586 8.18213 3.75444 8.18213 7.15383C8.18213 15.8465 17.6817 21.4441 19.0916 21.4441C20.5016 21.4441 30.0011 15.8471 30.0011 7.15383C30.0011 3.75444 27.2486 0.988586 23.8647 0.988586C22.0263 0.988586 20.2662 1.85266 19.0917 3.1812H19.0915ZM27.2737 7.15383C27.2737 13.4117 20.7729 17.7508 19.0915 18.6161C17.4101 17.7498 10.9094 13.411 10.9094 7.15383C10.9094 5.25831 12.439 3.7158 14.3186 3.7158C16.0524 3.7158 17.4961 5.07413 17.7555 6.34309C17.8855 6.97756 18.4432 7.43322 19.0913 7.43322C19.7391 7.43322 20.2971 6.9779 20.4268 6.34309C20.6871 5.07413 22.1305 3.7158 23.8646 3.7158C25.7442 3.7158 27.2738 5.25839 27.2738 7.15383H27.2737Z" fill="white"/>
</svg>
