<svg width="176" height="77" viewBox="0 0 176 77" fill="none" xmlns="http://www.w3.org/2000/svg">
<path d="M43.2207 50.3302V47.3368L51.1364 36.8934V38.0242H43.2207V34.6982H55.0389V37.6916L47.101 48.1351V47.0042H55.3715V50.3302H43.2207Z" fill="white"/>
<path d="M56.6885 42.5031C56.6885 40.8771 57.0063 39.4654 57.642 38.2681C58.2776 37.056 59.1867 36.1173 60.3692 35.4521C61.5518 34.7869 62.9487 34.4543 64.5599 34.4543C66.1859 34.4543 67.5902 34.7869 68.7728 35.4521C69.9553 36.1173 70.8644 37.056 71.5001 38.2681C72.1505 39.4654 72.4757 40.8771 72.4757 42.5031C72.4757 44.1144 72.1505 45.526 71.5001 46.7382C70.8644 47.9503 69.9553 48.8963 68.7728 49.5763C67.5902 50.2415 66.1859 50.5741 64.5599 50.5741C62.9487 50.5741 61.5518 50.2415 60.3692 49.5763C59.2015 48.8963 58.2924 47.9503 57.642 46.7382C57.0063 45.526 56.6885 44.1144 56.6885 42.5031ZM60.9679 42.5031C60.9679 43.9665 61.2635 45.1121 61.8548 45.9399C62.4461 46.7529 63.3478 47.1595 64.5599 47.1595C65.772 47.1595 66.6811 46.7529 67.2872 45.9399C67.8933 45.1121 68.1963 43.9665 68.1963 42.5031C68.1963 41.0397 67.8933 39.9015 67.2872 39.0885C66.6811 38.2755 65.772 37.869 64.5599 37.869C63.3478 37.869 62.4461 38.2755 61.8548 39.0885C61.2635 39.8867 60.9679 41.0249 60.9679 42.5031Z" fill="white"/>
<path d="M74.9305 50.3302V34.6982H77.946L85.8617 44.5209H85.2187V34.6982H89.0103V50.3302H85.9948L78.1234 40.5076H78.7664V50.3302H74.9305Z" fill="white"/>
<path d="M91.885 50.3302V34.6982H103.104V37.8246H95.8096V40.818H102.572V43.9665H95.8096V47.1816H103.104V50.3302H91.885Z" fill="white"/>
<path d="M109.725 50.3302L117.042 34.6982H120.368L127.73 50.3302H123.628L121.743 46.0286L123.317 47.1595H114.138L115.69 46.0286L113.827 50.3302H109.725ZM118.683 38.9111L116.089 45.0974L115.468 44.0552H121.965L121.411 45.0974L118.794 38.9111H118.683Z" fill="white"/>
<path d="M136.288 50.5741C134.47 50.5741 132.933 50.2415 131.676 49.5763C130.434 48.9111 129.488 47.9799 128.838 46.7825C128.202 45.5852 127.885 44.1883 127.885 42.5918C127.885 40.9362 128.232 39.5024 128.927 38.2903C129.636 37.0634 130.649 36.1173 131.964 35.4521C133.28 34.7869 134.862 34.4543 136.709 34.4543C137.848 34.4543 138.853 34.5874 139.725 34.8535C140.612 35.1195 141.373 35.5039 142.009 36.0065L140.745 39.1328C140.287 38.8224 139.851 38.5859 139.437 38.4233C139.037 38.2459 138.624 38.1203 138.195 38.0464C137.781 37.9725 137.301 37.9355 136.754 37.9355C135.216 37.9355 134.063 38.3346 133.295 39.1328C132.541 39.9163 132.164 41.0693 132.164 42.5918C132.164 44.0996 132.511 45.2378 133.206 46.0065C133.901 46.7751 135.002 47.1595 136.51 47.1595C136.968 47.1595 137.463 47.1151 137.995 47.0264C138.542 46.9377 139.097 46.8047 139.658 46.6273L138.927 48.0907V44.3657H135.689V41.5275H142.275V49.3546C141.432 49.7537 140.486 50.0567 139.437 50.2637C138.402 50.4706 137.352 50.5741 136.288 50.5741Z" fill="white"/>
<path d="M144.936 50.3302V34.6982H152.319C154.123 34.6982 155.512 35.1269 156.488 35.9843C157.478 36.8416 157.973 38.0316 157.973 39.5541C157.973 40.5741 157.751 41.4462 157.308 42.1705C156.865 42.8801 156.222 43.4344 155.379 43.8335C154.536 44.2178 153.531 44.41 152.363 44.41L152.563 43.8557H153.672C154.322 43.8557 154.899 44.0331 155.401 44.3878C155.904 44.7426 156.318 45.2378 156.643 45.8734L159.015 50.3302H154.536L151.987 45.3413C151.824 45.0161 151.58 44.7943 151.255 44.6761C150.944 44.5578 150.59 44.4987 150.19 44.4987H149.038V50.3302H144.936ZM149.038 41.594H151.61C152.408 41.594 153.014 41.4388 153.428 41.1284C153.842 40.8032 154.049 40.3228 154.049 39.6872C154.049 39.0663 153.842 38.6007 153.428 38.2903C153.014 37.9798 152.408 37.8246 151.61 37.8246H149.038V41.594Z" fill="white"/>
<path d="M160.213 42.5031C160.213 40.8771 160.531 39.4654 161.166 38.2681C161.802 37.056 162.711 36.1173 163.894 35.4521C165.076 34.7869 166.473 34.4543 168.084 34.4543C169.71 34.4543 171.115 34.7869 172.297 35.4521C173.48 36.1173 174.389 37.056 175.024 38.2681C175.675 39.4654 176 40.8771 176 42.5031C176 44.1144 175.675 45.526 175.024 46.7382C174.389 47.9503 173.48 48.8963 172.297 49.5763C171.115 50.2415 169.71 50.5741 168.084 50.5741C166.473 50.5741 165.076 50.2415 163.894 49.5763C162.726 48.8963 161.817 47.9503 161.166 46.7382C160.531 45.526 160.213 44.1144 160.213 42.5031ZM164.492 42.5031C164.492 43.9665 164.788 45.1121 165.379 45.9399C165.97 46.7529 166.872 47.1595 168.084 47.1595C169.296 47.1595 170.205 46.7529 170.812 45.9399C171.418 45.1121 171.721 43.9665 171.721 42.5031C171.721 41.0397 171.418 39.9015 170.812 39.0885C170.205 38.2755 169.296 37.869 168.084 37.869C166.872 37.869 165.97 38.2755 165.379 39.0885C164.788 39.8867 164.492 41.0249 164.492 42.5031Z" fill="white"/>
<path d="M131.082 63.69C129.983 63.69 129.053 63.4888 128.293 63.0865C127.542 62.6842 126.97 62.121 126.577 61.3969C126.192 60.6727 126 59.8279 126 58.8624C126 57.8611 126.21 56.9939 126.63 56.2608C127.059 55.5188 127.672 54.9467 128.467 54.5444C129.263 54.1421 130.22 53.9409 131.337 53.9409C132.026 53.9409 132.633 54.0214 133.161 54.1823C133.697 54.3432 134.158 54.5757 134.542 54.8796L133.778 56.7704C133.501 56.5827 133.237 56.4396 132.987 56.3413C132.745 56.234 132.495 56.158 132.236 56.1133C131.985 56.0686 131.695 56.0463 131.364 56.0463C130.434 56.0463 129.737 56.2877 129.272 56.7704C128.816 57.2442 128.588 57.9416 128.588 58.8624C128.588 59.7743 128.798 60.4626 129.218 60.9275C129.639 61.3924 130.305 61.6248 131.216 61.6248C131.494 61.6248 131.793 61.598 132.115 61.5444C132.446 61.4907 132.781 61.4103 133.121 61.303L132.678 62.1881V59.9352H130.72V58.2187H134.703V62.9524C134.193 63.1938 133.621 63.3771 132.987 63.5022C132.361 63.6274 131.726 63.69 131.082 63.69Z" fill="#37A0CF"/>
<path d="M136.312 63.5425V54.0884H140.778C141.868 54.0884 142.709 54.3477 143.299 54.8662C143.898 55.3847 144.197 56.1044 144.197 57.0252C144.197 57.6421 144.063 58.1695 143.795 58.6076C143.527 59.0367 143.138 59.372 142.628 59.6133C142.119 59.8458 141.511 59.962 140.805 59.962L140.925 59.6267H141.596C141.989 59.6267 142.338 59.734 142.642 59.9486C142.946 60.1631 143.196 60.4626 143.393 60.8471L144.828 63.5425H142.119L140.577 60.5252C140.478 60.3285 140.331 60.1944 140.134 60.1229C139.946 60.0514 139.732 60.0156 139.49 60.0156H138.793V63.5425H136.312ZM138.793 58.2589H140.349C140.831 58.2589 141.198 58.1651 141.448 57.9773C141.699 57.7806 141.824 57.4901 141.824 57.1057C141.824 56.7302 141.699 56.4486 141.448 56.2608C141.198 56.0731 140.831 55.9792 140.349 55.9792H138.793V58.2589Z" fill="#37A0CF"/>
<path d="M145.552 58.8087C145.552 57.8253 145.744 56.9716 146.128 56.2474C146.513 55.5144 147.063 54.9467 147.778 54.5444C148.493 54.1421 149.338 53.9409 150.312 53.9409C151.296 53.9409 152.145 54.1421 152.86 54.5444C153.575 54.9467 154.125 55.5144 154.51 56.2474C154.903 56.9716 155.1 57.8253 155.1 58.8087C155.1 59.7832 154.903 60.637 154.51 61.37C154.125 62.1031 153.575 62.6753 152.86 63.0865C152.145 63.4888 151.296 63.69 150.312 63.69C149.338 63.69 148.493 63.4888 147.778 63.0865C147.072 62.6753 146.522 62.1031 146.128 61.37C145.744 60.637 145.552 59.7832 145.552 58.8087ZM148.14 58.8087C148.14 59.6938 148.319 60.3866 148.676 60.8873C149.034 61.379 149.579 61.6248 150.312 61.6248C151.045 61.6248 151.595 61.379 151.962 60.8873C152.328 60.3866 152.512 59.6938 152.512 58.8087C152.512 57.9237 152.328 57.2353 151.962 56.7436C151.595 56.2519 151.045 56.0061 150.312 56.0061C149.579 56.0061 149.034 56.2519 148.676 56.7436C148.319 57.2264 148.14 57.9147 148.14 58.8087Z" fill="#37A0CF"/>
<path d="M160.782 63.69C159.369 63.69 158.31 63.3413 157.604 62.644C156.897 61.9467 156.544 60.9052 156.544 59.5195V54.0884H159.012V59.5329C159.012 60.2213 159.155 60.7442 159.441 61.1018C159.727 61.4505 160.174 61.6248 160.782 61.6248C161.39 61.6248 161.837 61.4505 162.123 61.1018C162.409 60.7442 162.552 60.2213 162.552 59.5329V54.0884H164.992V59.5195C164.992 60.9052 164.644 61.9467 163.946 62.644C163.249 63.3413 162.194 63.69 160.782 63.69Z" fill="#37A0CF"/>
<path d="M166.655 63.5425V54.0884H171.295C172.385 54.0884 173.208 54.3566 173.762 54.893C174.317 55.4205 174.594 56.1402 174.594 57.052C174.594 57.955 174.317 58.6746 173.762 59.211C173.208 59.7474 172.385 60.0156 171.295 60.0156H169.136V63.5425H166.655ZM169.136 58.1114H170.973C171.393 58.1114 171.706 58.022 171.912 57.8432C172.117 57.6555 172.22 57.3918 172.22 57.052C172.22 56.7123 172.117 56.4486 171.912 56.2608C171.706 56.0731 171.393 55.9792 170.973 55.9792H169.136V58.1114Z" fill="#37A0CF"/>
<path fill-rule="evenodd" clip-rule="evenodd" d="M61.7548 11.9335C61.7548 18.5242 56.412 23.867 49.8213 23.867C47.3623 23.867 45.077 23.1233 43.1781 21.8484L32.2407 32.7858C34.1925 35.6274 35.3346 39.0684 35.3346 42.7762C35.3346 46.022 34.4594 49.0634 32.932 51.6771L39.6447 58.3899C41.1711 57.3753 43.0032 56.7842 44.9734 56.7842C50.2967 56.7842 54.6121 61.0996 54.6121 66.4229C54.6121 71.7462 50.2967 76.0616 44.9734 76.0616C39.6501 76.0616 35.3347 71.7462 35.3347 66.4229C35.3347 64.787 35.7422 63.2464 36.4613 61.8969L29.9956 55.4312C26.8123 58.5328 22.4629 60.4435 17.6673 60.4435C7.90993 60.4435 0 52.5336 0 42.7762C0 33.0188 7.90993 25.1089 17.6673 25.1089C22.0095 25.1089 25.9859 26.6754 29.062 29.2741L39.8476 18.4884C38.6087 16.6072 37.8878 14.3545 37.8878 11.9335C37.8878 5.34282 43.2306 0 49.8213 0C56.412 0 61.7548 5.34282 61.7548 11.9335Z" fill="#151515"/>
<path fill-rule="evenodd" clip-rule="evenodd" d="M43.0474 20.5064L43.7585 20.9838C45.4911 22.147 47.5754 22.8256 49.8213 22.8256C55.8368 22.8256 60.7134 17.9491 60.7134 11.9335C60.7134 5.91796 55.8368 1.04138 49.8213 1.04138C43.8057 1.04138 38.9292 5.91796 38.9292 11.9335C38.9292 14.1448 39.587 16.1992 40.7174 17.9157L41.1842 18.6246L29.1214 30.6874L28.39 30.0696C25.4947 27.6237 21.7544 26.1503 17.6673 26.1503C8.48507 26.1503 1.04138 33.594 1.04138 42.7762C1.04138 51.9585 8.48507 59.4022 17.6673 59.4022C22.1806 59.4022 26.2721 57.6052 29.2689 54.6853L30.0051 53.9679L37.743 61.7059L37.3804 62.3866C36.7397 63.589 36.3761 64.962 36.3761 66.4229C36.3761 71.1711 40.2253 75.0202 44.9734 75.0202C49.7216 75.0202 53.5707 71.1711 53.5707 66.4229C53.5707 61.6747 49.7216 57.8256 44.9734 57.8256C43.2146 57.8256 41.5821 58.3526 40.2212 59.2571L39.5112 59.7291L31.6275 51.8454L32.0329 51.1517C33.4696 48.693 34.2933 45.8324 34.2933 42.7762C34.2933 39.2855 33.2187 36.049 31.3823 33.3754L30.8921 32.6617L43.0474 20.5064ZM43.1781 21.8484C45.077 23.1233 47.3623 23.867 49.8213 23.867C56.412 23.867 61.7548 18.5242 61.7548 11.9335C61.7548 5.34282 56.412 0 49.8213 0C43.2306 0 37.8878 5.34282 37.8878 11.9335C37.8878 14.3545 38.6087 16.6072 39.8476 18.4884L29.062 29.2741C25.9859 26.6754 22.0095 25.1089 17.6673 25.1089C7.90993 25.1089 0 33.0188 0 42.7762C0 52.5336 7.90993 60.4435 17.6673 60.4435C22.4629 60.4435 26.8123 58.5328 29.9956 55.4312L36.4613 61.8969C35.7422 63.2464 35.3347 64.787 35.3347 66.4229C35.3347 71.7462 39.6501 76.0616 44.9734 76.0616C50.2967 76.0616 54.6121 71.7462 54.6121 66.4229C54.6121 61.0996 50.2967 56.7842 44.9734 56.7842C43.0032 56.7842 41.1711 57.3753 39.6447 58.3899L32.932 51.6771C34.4594 49.0634 35.3346 46.022 35.3346 42.7762C35.3346 39.0684 34.1925 35.6274 32.2407 32.7858L43.1781 21.8484Z" fill="white"/>
<path d="M26.6974 53.0231C26.2254 53.0231 25.8229 52.9411 25.49 52.7772C25.162 52.6082 24.8863 52.3896 24.6627 52.1213L25.4527 51.3685C25.6316 51.5722 25.8179 51.7287 26.0117 51.838C26.2105 51.9424 26.444 51.9946 26.7124 51.9946C26.931 51.9946 27.1074 51.9374 27.2415 51.8231C27.3807 51.7088 27.4502 51.5548 27.4502 51.361V51.3461C27.4502 51.1325 27.3608 50.9685 27.1819 50.8542C27.003 50.7399 26.7521 50.6828 26.4291 50.6828H25.9521L25.7732 49.9523L27.0179 48.7002H24.9683V47.7163H28.4937V48.5809L27.1745 49.8405C27.3533 49.8703 27.5248 49.9175 27.6888 49.9821C27.8577 50.0467 28.0068 50.1362 28.136 50.2505C28.2701 50.3648 28.3769 50.5089 28.4565 50.6828C28.536 50.8517 28.5757 51.0579 28.5757 51.3014V51.3163C28.5757 51.5647 28.531 51.7933 28.4415 52.002C28.3571 52.2057 28.2329 52.3846 28.0689 52.5387C27.9099 52.6927 27.7136 52.812 27.4801 52.8964C27.2465 52.9809 26.9856 53.0231 26.6974 53.0231Z" fill="white"/>
<path d="M9.79966 42.5031C9.79966 40.8771 10.1175 39.4654 10.7531 38.2681C11.3887 37.056 12.2978 36.1173 13.4804 35.4521C14.6629 34.7869 16.0598 34.4543 17.6711 34.4543C19.2971 34.4543 20.7014 34.7869 21.8839 35.4521C23.0665 36.1173 23.9756 37.056 24.6112 38.2681C25.2616 39.4654 25.5868 40.8771 25.5868 42.5031C25.5868 44.1144 25.2616 45.526 24.6112 46.7382C23.9756 47.9503 23.0665 48.8963 21.8839 49.5763C20.7014 50.2415 19.2971 50.5741 17.6711 50.5741C16.0598 50.5741 14.6629 50.2415 13.4804 49.5763C12.3126 48.8963 11.4035 47.9503 10.7531 46.7382C10.1175 45.526 9.79966 44.1144 9.79966 42.5031ZM14.079 42.5031C14.079 43.9665 14.3747 45.1121 14.966 45.9399C15.5572 46.7529 16.4589 47.1595 17.6711 47.1595C18.8832 47.1595 19.7923 46.7529 20.3983 45.9399C21.0044 45.1121 21.3074 43.9665 21.3074 42.5031C21.3074 41.0397 21.0044 39.9015 20.3983 39.0885C19.7923 38.2755 18.8832 37.869 17.6711 37.869C16.4589 37.869 15.5572 38.2755 14.966 39.0885C14.3747 39.8867 14.079 41.0249 14.079 42.5031Z" fill="white"/>
</svg>
