<svg width="176" height="77" viewBox="0 0 176 77" fill="none" xmlns="http://www.w3.org/2000/svg">
<path d="M43.2207 50.9249V47.9316L51.1364 37.4881V38.6189H43.2207V35.293H55.0389V38.2863L47.101 48.7298V47.599H55.3715V50.9249H43.2207Z" fill="#015289"/>
<path d="M56.6885 43.0979C56.6885 41.4718 57.0063 40.0602 57.642 38.8628C58.2776 37.6507 59.1867 36.712 60.3692 36.0469C61.5518 35.3817 62.9487 35.0491 64.5599 35.0491C66.1859 35.0491 67.5902 35.3817 68.7728 36.0469C69.9553 36.712 70.8644 37.6507 71.5001 38.8628C72.1505 40.0602 72.4757 41.4718 72.4757 43.0979C72.4757 44.7091 72.1505 46.1208 71.5001 47.3329C70.8644 48.545 69.9553 49.4911 68.7728 50.171C67.5902 50.8362 66.1859 51.1688 64.5599 51.1688C62.9487 51.1688 61.5518 50.8362 60.3692 50.171C59.2015 49.4911 58.2924 48.545 57.642 47.3329C57.0063 46.1208 56.6885 44.7091 56.6885 43.0979ZM60.9679 43.0979C60.9679 44.5613 61.2635 45.7069 61.8548 46.5347C62.4461 47.3477 63.3478 47.7542 64.5599 47.7542C65.772 47.7542 66.6811 47.3477 67.2872 46.5347C67.8933 45.7069 68.1963 44.5613 68.1963 43.0979C68.1963 41.6344 67.8933 40.4962 67.2872 39.6832C66.6811 38.8702 65.772 38.4637 64.5599 38.4637C63.3478 38.4637 62.4461 38.8702 61.8548 39.6832C61.2635 40.4814 60.9679 41.6197 60.9679 43.0979Z" fill="#015289"/>
<path d="M74.9305 50.9249V35.293H77.946L85.8617 45.1156H85.2187V35.293H89.0103V50.9249H85.9948L78.1234 41.1023H78.7664V50.9249H74.9305Z" fill="#015289"/>
<path d="M91.885 50.9249V35.293H103.104V38.4194H95.8096V41.4127H102.572V44.5613H95.8096V47.7764H103.104V50.9249H91.885Z" fill="#015289"/>
<path d="M109.725 50.9249L117.042 35.293H120.368L127.73 50.9249H123.628L121.743 46.6234L123.317 47.7542H114.138L115.69 46.6234L113.827 50.9249H109.725ZM118.683 39.5058L116.089 45.6921L115.468 44.65H121.965L121.411 45.6921L118.794 39.5058H118.683Z" fill="#015289"/>
<path d="M136.288 51.1688C134.47 51.1688 132.933 50.8362 131.676 50.171C130.434 49.5058 129.488 48.5746 128.838 47.3772C128.202 46.1799 127.885 44.783 127.885 43.1865C127.885 41.531 128.232 40.0971 128.927 38.885C129.636 37.6581 130.649 36.712 131.964 36.0469C133.28 35.3817 134.862 35.0491 136.709 35.0491C137.848 35.0491 138.853 35.1821 139.725 35.4482C140.612 35.7143 141.373 36.0986 142.009 36.6012L140.745 39.7276C140.287 39.4171 139.851 39.1806 139.437 39.018C139.037 38.8406 138.624 38.715 138.195 38.6411C137.781 38.5672 137.301 38.5302 136.754 38.5302C135.216 38.5302 134.063 38.9293 133.295 39.7276C132.541 40.511 132.164 41.664 132.164 43.1865C132.164 44.6943 132.511 45.8325 133.206 46.6012C133.901 47.3698 135.002 47.7542 136.51 47.7542C136.968 47.7542 137.463 47.7098 137.995 47.6211C138.542 47.5324 139.097 47.3994 139.658 47.222L138.927 48.6854V44.9604H135.689V42.1222H142.275V49.9493C141.432 50.3484 140.486 50.6514 139.437 50.8584C138.402 51.0653 137.352 51.1688 136.288 51.1688Z" fill="#015289"/>
<path d="M144.936 50.9249V35.293H152.319C154.123 35.293 155.512 35.7217 156.488 36.579C157.478 37.4364 157.973 38.6263 157.973 40.1489C157.973 41.1688 157.751 42.0409 157.308 42.7653C156.865 43.4748 156.222 44.0291 155.379 44.4282C154.536 44.8126 153.531 45.0047 152.363 45.0047L152.563 44.4504H153.672C154.322 44.4504 154.899 44.6278 155.401 44.9826C155.904 45.3373 156.318 45.8325 156.643 46.4681L159.015 50.9249H154.536L151.987 45.936C151.824 45.6108 151.58 45.3891 151.255 45.2708C150.944 45.1526 150.59 45.0934 150.19 45.0934H149.038V50.9249H144.936ZM149.038 42.1888H151.61C152.408 42.1888 153.014 42.0336 153.428 41.7231C153.842 41.3979 154.049 40.9175 154.049 40.2819C154.049 39.661 153.842 39.1954 153.428 38.885C153.014 38.5746 152.408 38.4194 151.61 38.4194H149.038V42.1888Z" fill="#015289"/>
<path d="M160.213 43.0979C160.213 41.4718 160.531 40.0602 161.166 38.8628C161.802 37.6507 162.711 36.712 163.894 36.0469C165.076 35.3817 166.473 35.0491 168.084 35.0491C169.71 35.0491 171.115 35.3817 172.297 36.0469C173.48 36.712 174.389 37.6507 175.024 38.8628C175.675 40.0602 176 41.4718 176 43.0979C176 44.7091 175.675 46.1208 175.024 47.3329C174.389 48.545 173.48 49.4911 172.297 50.171C171.115 50.8362 169.71 51.1688 168.084 51.1688C166.473 51.1688 165.076 50.8362 163.894 50.171C162.726 49.4911 161.817 48.545 161.166 47.3329C160.531 46.1208 160.213 44.7091 160.213 43.0979ZM164.492 43.0979C164.492 44.5613 164.788 45.7069 165.379 46.5347C165.97 47.3477 166.872 47.7542 168.084 47.7542C169.296 47.7542 170.205 47.3477 170.812 46.5347C171.418 45.7069 171.721 44.5613 171.721 43.0979C171.721 41.6344 171.418 40.4962 170.812 39.6832C170.205 38.8702 169.296 38.4637 168.084 38.4637C166.872 38.4637 165.97 38.8702 165.379 39.6832C164.788 40.4814 164.492 41.6197 164.492 43.0979Z" fill="#015289"/>
<path d="M131.082 64.2847C129.983 64.2847 129.053 64.0835 128.293 63.6812C127.542 63.2789 126.97 62.7157 126.577 61.9916C126.192 61.2675 126 60.4226 126 59.4571C126 58.4558 126.21 57.5886 126.63 56.8556C127.059 56.1136 127.672 55.5414 128.467 55.1391C129.263 54.7368 130.22 54.5356 131.337 54.5356C132.026 54.5356 132.633 54.6161 133.161 54.777C133.697 54.9379 134.158 55.1704 134.542 55.4743L133.778 57.3651C133.501 57.1774 133.237 57.0344 132.987 56.936C132.745 56.8288 132.495 56.7528 132.236 56.7081C131.985 56.6634 131.695 56.641 131.364 56.641C130.434 56.641 129.737 56.8824 129.272 57.3651C128.816 57.839 128.588 58.5363 128.588 59.4571C128.588 60.369 128.798 61.0574 129.218 61.5222C129.639 61.9871 130.305 62.2196 131.216 62.2196C131.494 62.2196 131.793 62.1927 132.115 62.1391C132.446 62.0855 132.781 62.005 133.121 61.8977L132.678 62.7828V60.5299H130.72V58.8134H134.703V63.5471C134.193 63.7885 133.621 63.9718 132.987 64.097C132.361 64.2221 131.726 64.2847 131.082 64.2847Z" fill="#37A0CF"/>
<path d="M136.312 64.1372V54.6832H140.778C141.868 54.6832 142.709 54.9424 143.299 55.4609C143.898 55.9795 144.197 56.6991 144.197 57.6199C144.197 58.2368 144.063 58.7643 143.795 59.2023C143.527 59.6314 143.138 59.9667 142.628 60.2081C142.119 60.4405 141.511 60.5567 140.805 60.5567L140.925 60.2215H141.596C141.989 60.2215 142.338 60.3288 142.642 60.5433C142.946 60.7579 143.196 61.0574 143.393 61.4418L144.828 64.1372H142.119L140.577 61.1199C140.478 60.9233 140.331 60.7892 140.134 60.7176C139.946 60.6461 139.732 60.6104 139.49 60.6104H138.793V64.1372H136.312ZM138.793 58.8537H140.349C140.831 58.8537 141.198 58.7598 141.448 58.572C141.699 58.3754 141.824 58.0848 141.824 57.7004C141.824 57.3249 141.699 57.0433 141.448 56.8556C141.198 56.6678 140.831 56.574 140.349 56.574H138.793V58.8537Z" fill="#37A0CF"/>
<path d="M145.552 59.4035C145.552 58.4201 145.744 57.5663 146.128 56.8422C146.513 56.1091 147.063 55.5414 147.778 55.1391C148.493 54.7368 149.338 54.5356 150.312 54.5356C151.296 54.5356 152.145 54.7368 152.86 55.1391C153.575 55.5414 154.125 56.1091 154.51 56.8422C154.903 57.5663 155.1 58.4201 155.1 59.4035C155.1 60.3779 154.903 61.2317 154.51 61.9648C154.125 62.6979 153.575 63.27 152.86 63.6812C152.145 64.0835 151.296 64.2847 150.312 64.2847C149.338 64.2847 148.493 64.0835 147.778 63.6812C147.072 63.27 146.522 62.6979 146.128 61.9648C145.744 61.2317 145.552 60.3779 145.552 59.4035ZM148.14 59.4035C148.14 60.2885 148.319 60.9814 148.676 61.482C149.034 61.9737 149.579 62.2196 150.312 62.2196C151.045 62.2196 151.595 61.9737 151.962 61.482C152.328 60.9814 152.512 60.2885 152.512 59.4035C152.512 58.5184 152.328 57.83 151.962 57.3383C151.595 56.8466 151.045 56.6008 150.312 56.6008C149.579 56.6008 149.034 56.8466 148.676 57.3383C148.319 57.8211 148.14 58.5095 148.14 59.4035Z" fill="#37A0CF"/>
<path d="M160.782 64.2847C159.369 64.2847 158.31 63.936 157.604 63.2387C156.897 62.5414 156.544 61.4999 156.544 60.1142V54.6832H159.012V60.1276C159.012 60.816 159.155 61.339 159.441 61.6966C159.727 62.0452 160.174 62.2196 160.782 62.2196C161.39 62.2196 161.837 62.0452 162.123 61.6966C162.409 61.339 162.552 60.816 162.552 60.1276V54.6832H164.992V60.1142C164.992 61.4999 164.644 62.5414 163.946 63.2387C163.249 63.936 162.194 64.2847 160.782 64.2847Z" fill="#37A0CF"/>
<path d="M166.655 64.1372V54.6832H171.295C172.385 54.6832 173.208 54.9514 173.762 55.4878C174.317 56.0152 174.594 56.7349 174.594 57.6468C174.594 58.5497 174.317 59.2694 173.762 59.8058C173.208 60.3422 172.385 60.6104 171.295 60.6104H169.136V64.1372H166.655ZM169.136 58.7061H170.973C171.393 58.7061 171.706 58.6167 171.912 58.4379C172.117 58.2502 172.22 57.9865 172.22 57.6468C172.22 57.307 172.117 57.0433 171.912 56.8556C171.706 56.6678 171.393 56.574 170.973 56.574H169.136V58.7061Z" fill="#37A0CF"/>
<path fill-rule="evenodd" clip-rule="evenodd" d="M61.7548 12.5282C61.7548 19.1189 56.412 24.4617 49.8213 24.4617C47.3623 24.4617 45.077 23.718 43.1781 22.4432L32.2407 33.3805C34.1925 36.2221 35.3346 39.6631 35.3346 43.3709C35.3346 46.6167 34.4594 49.6581 32.932 52.2718L39.6447 58.9846C41.1711 57.97 43.0032 57.3789 44.9734 57.3789C50.2967 57.3789 54.6121 61.6943 54.6121 67.0176C54.6121 72.3409 50.2967 76.6563 44.9734 76.6563C39.6501 76.6563 35.3347 72.3409 35.3347 67.0176C35.3347 65.3818 35.7422 63.8411 36.4613 62.4916L29.9956 56.0259C26.8123 59.1276 22.4629 61.0383 17.6673 61.0383C7.90993 61.0383 0 53.1283 0 43.3709C0 33.6136 7.90993 25.7036 17.6673 25.7036C22.0095 25.7036 25.9859 27.2701 29.062 29.8688L39.8476 19.0832C38.6087 17.2019 37.8878 14.9493 37.8878 12.5282C37.8878 5.93754 43.2306 0.594727 49.8213 0.594727C56.412 0.594727 61.7548 5.93754 61.7548 12.5282Z" fill="white"/>
<path fill-rule="evenodd" clip-rule="evenodd" d="M43.0474 21.1011L43.7585 21.5786C45.4911 22.7418 47.5754 23.4204 49.8213 23.4204C55.8368 23.4204 60.7134 18.5438 60.7134 12.5282C60.7134 6.51268 55.8368 1.63611 49.8213 1.63611C43.8057 1.63611 38.9292 6.51268 38.9292 12.5282C38.9292 14.7395 39.587 16.7939 40.7174 18.5104L41.1842 19.2193L29.1214 31.2822L28.39 30.6643C25.4947 28.2184 21.7544 26.745 17.6673 26.745C8.48507 26.745 1.04138 34.1887 1.04138 43.3709C1.04138 52.5532 8.48507 59.9969 17.6673 59.9969C22.1806 59.9969 26.2721 58.1999 29.2689 55.28L30.0051 54.5627L37.743 62.3006L37.3804 62.9813C36.7397 64.1838 36.3761 65.5567 36.3761 67.0176C36.3761 71.7658 40.2253 75.6149 44.9734 75.6149C49.7216 75.6149 53.5707 71.7658 53.5707 67.0176C53.5707 62.2695 49.7216 58.4203 44.9734 58.4203C43.2146 58.4203 41.5821 58.9473 40.2212 59.8519L39.5112 60.3238L31.6275 52.4401L32.0329 51.7464C33.4696 49.2878 34.2933 46.4271 34.2933 43.3709C34.2933 39.8803 33.2187 36.6437 31.3823 33.9701L30.8921 33.2564L43.0474 21.1011ZM43.1781 22.4432C45.077 23.718 47.3623 24.4617 49.8213 24.4617C56.412 24.4617 61.7548 19.1189 61.7548 12.5282C61.7548 5.93754 56.412 0.594727 49.8213 0.594727C43.2306 0.594727 37.8878 5.93754 37.8878 12.5282C37.8878 14.9493 38.6087 17.2019 39.8476 19.0832L29.062 29.8688C25.9859 27.2701 22.0095 25.7036 17.6673 25.7036C7.90993 25.7036 0 33.6136 0 43.3709C0 53.1283 7.90993 61.0383 17.6673 61.0383C22.4629 61.0383 26.8123 59.1276 29.9956 56.0259L36.4613 62.4916C35.7422 63.8411 35.3347 65.3818 35.3347 67.0176C35.3347 72.3409 39.6501 76.6563 44.9734 76.6563C50.2967 76.6563 54.6121 72.3409 54.6121 67.0176C54.6121 61.6943 50.2967 57.3789 44.9734 57.3789C43.0032 57.3789 41.1711 57.97 39.6447 58.9846L32.932 52.2718C34.4594 49.6581 35.3346 46.6167 35.3346 43.3709C35.3346 39.6631 34.1925 36.2221 32.2407 33.3805L43.1781 22.4432Z" fill="#015289"/>
<path d="M26.6974 53.6179C26.2254 53.6179 25.8229 53.5359 25.49 53.3719C25.162 53.203 24.8863 52.9843 24.6627 52.716L25.4527 51.9632C25.6316 52.1669 25.8179 52.3235 26.0117 52.4328C26.2105 52.5371 26.444 52.5893 26.7124 52.5893C26.931 52.5893 27.1074 52.5321 27.2415 52.4179C27.3807 52.3036 27.4502 52.1495 27.4502 51.9557V51.9408C27.4502 51.7272 27.3608 51.5632 27.1819 51.4489C27.003 51.3346 26.7521 51.2775 26.4291 51.2775H25.9521L25.7732 50.5471L27.0179 49.2949H24.9683V48.311H28.4937V49.1756L27.1745 50.4353C27.3533 50.4651 27.5248 50.5123 27.6888 50.5769C27.8577 50.6415 28.0068 50.7309 28.136 50.8452C28.2701 50.9595 28.3769 51.1036 28.4565 51.2775C28.536 51.4464 28.5757 51.6526 28.5757 51.8961V51.911C28.5757 52.1595 28.531 52.388 28.4415 52.5967C28.3571 52.8005 28.2329 52.9793 28.0689 53.1334C27.9099 53.2874 27.7136 53.4067 27.4801 53.4911C27.2465 53.5756 26.9856 53.6179 26.6974 53.6179Z" fill="#015289"/>
<path d="M9.79966 43.0979C9.79966 41.4718 10.1175 40.0602 10.7531 38.8628C11.3887 37.6507 12.2978 36.712 13.4804 36.0469C14.6629 35.3817 16.0598 35.0491 17.6711 35.0491C19.2971 35.0491 20.7014 35.3817 21.8839 36.0469C23.0665 36.712 23.9756 37.6507 24.6112 38.8628C25.2616 40.0602 25.5868 41.4718 25.5868 43.0979C25.5868 44.7091 25.2616 46.1208 24.6112 47.3329C23.9756 48.545 23.0665 49.4911 21.8839 50.171C20.7014 50.8362 19.2971 51.1688 17.6711 51.1688C16.0598 51.1688 14.6629 50.8362 13.4804 50.171C12.3126 49.4911 11.4035 48.545 10.7531 47.3329C10.1175 46.1208 9.79966 44.7091 9.79966 43.0979ZM14.079 43.0979C14.079 44.5613 14.3747 45.7069 14.966 46.5347C15.5572 47.3477 16.4589 47.7542 17.6711 47.7542C18.8832 47.7542 19.7923 47.3477 20.3983 46.5347C21.0044 45.7069 21.3074 44.5613 21.3074 43.0979C21.3074 41.6344 21.0044 40.4962 20.3983 39.6832C19.7923 38.8702 18.8832 38.4637 17.6711 38.4637C16.4589 38.4637 15.5572 38.8702 14.966 39.6832C14.3747 40.4814 14.079 41.6197 14.079 43.0979Z" fill="#015289"/>
</svg>
