<svg width="20" height="21" viewBox="0 0 20 21" fill="none" xmlns="http://www.w3.org/2000/svg">
<path d="M17.7584 20.4984C18.7331 20.1493 19.9794 18.5935 19.9997 17.8493C20.0389 16.4187 16.6498 13.3072 15.4422 13.2918C14.6374 13.2815 13.5782 14.5592 13.1443 15.132C13.0893 15.205 13.0073 15.2528 12.9166 15.2646C12.8259 15.2762 12.7345 15.2508 12.6627 15.1942C11.0704 13.9439 6.80719 9.68033 5.5568 8.08828C5.50022 8.01651 5.4748 7.92505 5.48643 7.83437C5.49821 7.74369 5.54595 7.66169 5.61896 7.60666C6.19157 7.17278 7.46946 6.11362 7.45922 5.30882C7.44372 4.10129 4.33238 0.71203 2.90171 0.751315C2.15735 0.771777 0.60169 2.01789 0.252605 2.99257C-2.00571 9.29848 11.4521 22.7563 17.758 20.498L17.7584 20.4984Z" fill="#37A0CF"/>
<path d="M19.9965 10.7523C19.9939 8.10179 18.9398 5.56066 17.0658 3.68607C15.1919 1.81172 12.6507 0.75716 10.0004 0.753906V1.86501C12.3563 1.8678 14.615 2.80512 16.2805 4.47134C17.9462 6.13736 18.8831 8.39615 18.8854 10.7522L19.9965 10.7523Z" fill="#37A0CF"/>
<path d="M10.0002 3.43339V4.54449C11.6457 4.54666 13.2233 5.20143 14.3866 6.36523C15.55 7.52904 16.2043 9.10672 16.2058 10.7521H17.3169C17.3151 8.812 16.5436 6.95174 15.1719 5.57992C13.8003 4.20779 11.9403 3.43585 10.0001 3.43335L10.0002 3.43339Z" fill="#37A0CF"/>
</svg>
